<svg xmlns="http://www.w3.org/2000/svg" xmlns:svg="http://www.w3.org/2000/svg" xmlns:xlink="http://www.w3.org/1999/xlink" id="svg2" width="533.78" height="135.97" version="1.0"><defs id="defs4"><linearGradient id="linearGradient3180"><stop style="stop-color:#fff;stop-opacity:1" id="stop3182" offset="0"/><stop style="stop-color:#fff;stop-opacity:0" id="stop3184" offset="1"/></linearGradient><linearGradient id="linearGradient3647"><stop style="stop-color:#458cff;stop-opacity:1" id="stop3649" offset="0"/><stop id="stop3711" offset=".5" style="stop-color:#a2c5ff;stop-opacity:1"/><stop style="stop-color:#fff;stop-opacity:1" id="stop3651" offset="1"/></linearGradient><linearGradient id="linearGradient3227"><stop style="stop-color:#000;stop-opacity:1" id="stop3229" offset="0"/><stop style="stop-color:#000;stop-opacity:0" id="stop3231" offset="1"/></linearGradient><linearGradient id="linearGradient3165"><stop style="stop-color:#458cff;stop-opacity:.49803922" id="stop3167" offset="0"/><stop id="stop3177" offset=".5" style="stop-color:#458cff;stop-opacity:.12941177"/><stop style="stop-color:#458cff;stop-opacity:0" id="stop3169" offset="1"/></linearGradient><linearGradient id="linearGradient3173" x1="405.987" x2="405.987" y1="89.505" y2="176.493" gradientUnits="userSpaceOnUse" xlink:href="#linearGradient3165"/><linearGradient id="linearGradient3206" x1="405.987" x2="405.987" y1="89.505" y2="169.434" gradientTransform="translate(6.0299998,-1.7513455)" gradientUnits="userSpaceOnUse" xlink:href="#linearGradient3165"/><linearGradient id="linearGradient3219" x1="438.176" x2="168.235" y1="99.539" y2="98.009" gradientTransform="translate(6.0299998,-1.7513455)" gradientUnits="userSpaceOnUse" xlink:href="#linearGradient3165"/><linearGradient id="linearGradient3233" x1="317.71" x2="471.39" y1="126.509" y2="126.509" gradientUnits="userSpaceOnUse" xlink:href="#linearGradient3227"/><linearGradient id="linearGradient3653" x1="561.642" x2="556.356" y1="-79.141" y2="-8.164" gradientTransform="translate(5.0971187,-3.6670828)" gradientUnits="userSpaceOnUse" xlink:href="#linearGradient3647"/><filter id="filter3707"><feGaussianBlur id="feGaussianBlur3709" stdDeviation="1.635"/></filter><linearGradient id="linearGradient3715" x1="561.642" x2="560.949" y1="-79.141" y2="-1.326" gradientTransform="matrix(0.8870556,0,0,0.8389762,-100.66335,390.79218)" gradientUnits="userSpaceOnUse" xlink:href="#linearGradient3647"/><filter id="filter3737"><feGaussianBlur id="feGaussianBlur3739" stdDeviation="1.44"/></filter><linearGradient id="linearGradient3186" x1="400.313" x2="156.29" y1="117.891" y2="117.891" gradientTransform="translate(6.0299998,-1.7513453)" gradientUnits="userSpaceOnUse" xlink:href="#linearGradient3180"/><filter id="filter3228" width="1.043" height="1.219" x="-.022" y="-.109"><feGaussianBlur id="feGaussianBlur3230" stdDeviation="2.587"/></filter><filter id="filter3248" width="1.043" height="1.228" x="-.021" y="-.114"><feGaussianBlur id="feGaussianBlur3250" stdDeviation="2.789"/></filter><linearGradient id="XMLID_44_" x1="67.947" x2="67.947" y1="71.6" y2="132.299" gradientUnits="userSpaceOnUse"><stop style="stop-color:#458cff" id="stop58" offset="0"/><stop style="stop-color:#fff" id="stop60" offset="1"/></linearGradient><linearGradient id="XMLID_45_" x1="61.629" x2="61.629" y1="71.6" y2="132.299" gradientUnits="userSpaceOnUse"><stop style="stop-color:#458cff" id="stop65" offset="0"/><stop style="stop-color:#fff" id="stop67" offset="1"/></linearGradient><linearGradient id="XMLID_46_" x1="57.048" x2="57.048" y1="71.599" y2="132.298" gradientUnits="userSpaceOnUse"><stop style="stop-color:#458cff" id="stop72" offset="0"/><stop style="stop-color:#fff" id="stop74" offset="1"/></linearGradient><linearGradient id="XMLID_47_" x1="53.245" x2="53.245" y1="71.601" y2="132.3" gradientUnits="userSpaceOnUse"><stop style="stop-color:#458cff" id="stop79" offset="0"/><stop style="stop-color:#fff" id="stop81" offset="1"/></linearGradient><linearGradient id="XMLID_48_" x1="42.977" x2="42.977" y1="71.6" y2="132.299" gradientUnits="userSpaceOnUse"><stop style="stop-color:#458cff" id="stop86" offset="0"/><stop style="stop-color:#fff" id="stop88" offset="1"/></linearGradient><linearGradient id="XMLID_49_" x1="35.199" x2="35.199" y1="71.6" y2="132.299" gradientUnits="userSpaceOnUse"><stop style="stop-color:#458cff" id="stop93" offset="0"/><stop style="stop-color:#fff" id="stop95" offset="1"/></linearGradient><linearGradient id="XMLID_50_" x1="30.055" x2="30.055" y1="71.6" y2="132.299" gradientUnits="userSpaceOnUse"><stop style="stop-color:#458cff" id="stop100" offset="0"/><stop style="stop-color:#fff" id="stop102" offset="1"/></linearGradient><linearGradient id="XMLID_51_" x1="25.997" x2="25.997" y1="71.6" y2="132.299" gradientUnits="userSpaceOnUse"><stop style="stop-color:#458cff" id="stop107" offset="0"/><stop style="stop-color:#fff" id="stop109" offset="1"/></linearGradient><linearGradient id="XMLID_52_" x1="22.681" x2="22.681" y1="71.6" y2="132.299" gradientUnits="userSpaceOnUse"><stop style="stop-color:#458cff" id="stop114" offset="0"/><stop style="stop-color:#fff" id="stop116" offset="1"/></linearGradient><linearGradient id="XMLID_53_" x1="19.959" x2="19.959" y1="71.6" y2="132.299" gradientUnits="userSpaceOnUse"><stop style="stop-color:#458cff" id="stop121" offset="0"/><stop style="stop-color:#fff" id="stop123" offset="1"/></linearGradient><linearGradient id="XMLID_54_" x1="17.754" x2="17.754" y1="71.6" y2="132.298" gradientUnits="userSpaceOnUse"><stop style="stop-color:#458cff" id="stop128" offset="0"/><stop style="stop-color:#fff" id="stop130" offset="1"/></linearGradient><linearGradient id="XMLID_55_" x1="16.018" x2="16.018" y1="71.6" y2="132.299" gradientUnits="userSpaceOnUse"><stop style="stop-color:#458cff" id="stop135" offset="0"/><stop style="stop-color:#fff" id="stop137" offset="1"/></linearGradient><linearGradient id="XMLID_56_" x1="14.756" x2="14.756" y1="71.6" y2="132.299" gradientUnits="userSpaceOnUse"><stop style="stop-color:#458cff" id="stop142" offset="0"/><stop style="stop-color:#fff" id="stop144" offset="1"/></linearGradient><linearGradient id="XMLID_57_" x1="13.959" x2="13.959" y1="71.6" y2="132.299" gradientUnits="userSpaceOnUse"><stop style="stop-color:#458cff" id="stop149" offset="0"/><stop style="stop-color:#fff" id="stop151" offset="1"/></linearGradient><linearGradient id="XMLID_58_" x1="13.741" x2="13.741" y1="71.6" y2="132.299" gradientUnits="userSpaceOnUse"><stop style="stop-color:#458cff" id="stop156" offset="0"/><stop style="stop-color:#fff" id="stop158" offset="1"/></linearGradient><linearGradient id="XMLID_59_" x1="14.164" x2="14.164" y1="71.6" y2="132.299" gradientUnits="userSpaceOnUse"><stop style="stop-color:#458cff" id="stop163" offset="0"/><stop style="stop-color:#fff" id="stop165" offset="1"/></linearGradient><linearGradient id="XMLID_60_" x1="15.22" x2="15.22" y1="71.6" y2="132.298" gradientUnits="userSpaceOnUse"><stop style="stop-color:#458cff" id="stop170" offset="0"/><stop style="stop-color:#fff" id="stop172" offset="1"/></linearGradient><linearGradient id="XMLID_61_" x1="17.282" x2="17.282" y1="71.6" y2="132.299" gradientUnits="userSpaceOnUse"><stop style="stop-color:#458cff" id="stop177" offset="0"/><stop style="stop-color:#fff" id="stop179" offset="1"/></linearGradient><linearGradient id="XMLID_62_" x1="21.452" x2="21.452" y1="71.6" y2="132.299" gradientUnits="userSpaceOnUse"><stop style="stop-color:#458cff" id="stop184" offset="0"/><stop style="stop-color:#fff" id="stop186" offset="1"/></linearGradient><linearGradient id="XMLID_63_" x1="28.956" x2="28.956" y1="71.6" y2="132.299" gradientUnits="userSpaceOnUse"><stop style="stop-color:#458cff" id="stop191" offset="0"/><stop style="stop-color:#fff" id="stop193" offset="1"/></linearGradient><linearGradient id="XMLID_64_" x1="29.629" x2="29.629" y1="71.6" y2="132.298" gradientUnits="userSpaceOnUse"><stop style="stop-color:#458cff" id="stop198" offset="0"/><stop style="stop-color:#fff" id="stop200" offset="1"/></linearGradient><linearGradient id="XMLID_65_" x1="31.016" x2="31.016" y1="71.6" y2="132.299" gradientUnits="userSpaceOnUse"><stop style="stop-color:#458cff" id="stop205" offset="0"/><stop style="stop-color:#fff" id="stop207" offset="1"/></linearGradient><linearGradient id="XMLID_66_" x1="33.919" x2="33.919" y1="71.6" y2="132.299" gradientUnits="userSpaceOnUse"><stop style="stop-color:#458cff" id="stop212" offset="0"/><stop style="stop-color:#fff" id="stop214" offset="1"/></linearGradient><linearGradient id="XMLID_67_" x1="36.756" x2="36.756" y1="71.597" y2="132.294" gradientUnits="userSpaceOnUse"><stop style="stop-color:#458cff" id="stop219" offset="0"/><stop style="stop-color:#fff" id="stop221" offset="1"/></linearGradient><linearGradient id="XMLID_68_" x1="268.606" x2="268.606" y1="71.599" y2="132.297" gradientUnits="userSpaceOnUse"><stop style="stop-color:#458cff" id="stop228" offset="0"/><stop style="stop-color:#fff" id="stop230" offset="1"/></linearGradient><linearGradient id="XMLID_69_" x1="231.377" x2="231.377" y1="71.598" y2="132.298" gradientUnits="userSpaceOnUse"><stop style="stop-color:#458cff" id="stop235" offset="0"/><stop style="stop-color:#fff" id="stop237" offset="1"/></linearGradient><linearGradient id="XMLID_70_" x1="114.657" x2="114.657" y1="71.598" y2="132.3" gradientUnits="userSpaceOnUse"><stop style="stop-color:#458cff" id="stop242" offset="0"/><stop style="stop-color:#fff" id="stop244" offset="1"/></linearGradient><linearGradient id="XMLID_71_" x1="153.124" x2="153.124" y1="71.601" y2="132.299" gradientUnits="userSpaceOnUse"><stop style="stop-color:#458cff" id="stop249" offset="0"/><stop style="stop-color:#fff" id="stop251" offset="1"/></linearGradient><linearGradient id="XMLID_72_" x1="184.681" x2="184.681" y1="71.598" y2="132.298" gradientUnits="userSpaceOnUse"><stop style="stop-color:#458cff" id="stop256" offset="0"/><stop style="stop-color:#fff" id="stop258" offset="1"/></linearGradient><linearGradient id="XMLID_73_" x1="463.526" x2="463.526" y1="71.598" y2="132.298" gradientUnits="userSpaceOnUse"><stop style="stop-color:#458cff" id="stop263" offset="0"/><stop style="stop-color:#fff" id="stop265" offset="1"/></linearGradient><linearGradient id="XMLID_74_" x1="414.711" x2="414.711" y1="71.6" y2="132.297" gradientUnits="userSpaceOnUse"><stop style="stop-color:#458cff" id="stop270" offset="0"/><stop style="stop-color:#fff" id="stop272" offset="1"/></linearGradient><linearGradient id="XMLID_75_" x1="367.182" x2="367.182" y1="71.598" y2="132.298" gradientUnits="userSpaceOnUse"><stop style="stop-color:#458cff" id="stop277" offset="0"/><stop style="stop-color:#fff" id="stop279" offset="1"/></linearGradient><linearGradient id="XMLID_76_" x1="312.768" x2="312.768" y1="71.6" y2="132.299" gradientUnits="userSpaceOnUse"><stop style="stop-color:#458cff" id="stop286" offset="0"/><stop style="stop-color:#fff" id="stop288" offset="1"/></linearGradient><linearGradient id="XMLID_77_" x1="312.542" x2="312.542" y1="71.6" y2="132.298" gradientUnits="userSpaceOnUse"><stop style="stop-color:#458cff" id="stop293" offset="0"/><stop style="stop-color:#fff" id="stop295" offset="1"/></linearGradient><linearGradient id="XMLID_78_" x1="294.419" x2="294.419" y1="71.6" y2="132.298" gradientUnits="userSpaceOnUse"><stop style="stop-color:#458cff" id="stop300" offset="0"/><stop style="stop-color:#fff" id="stop302" offset="1"/></linearGradient><linearGradient id="XMLID_79_" x1="330.345" x2="330.345" y1="71.6" y2="132.298" gradientUnits="userSpaceOnUse"><stop style="stop-color:#458cff" id="stop307" offset="0"/><stop style="stop-color:#fff" id="stop309" offset="1"/></linearGradient><linearGradient id="XMLID_80_" x1="290.603" x2="290.603" y1="71.6" y2="132.298" gradientUnits="userSpaceOnUse"><stop style="stop-color:#458cff" id="stop314" offset="0"/><stop style="stop-color:#fff" id="stop316" offset="1"/></linearGradient><linearGradient id="XMLID_81_" x1="289.611" x2="289.611" y1="71.6" y2="132.298" gradientUnits="userSpaceOnUse"><stop style="stop-color:#458cff" id="stop321" offset="0"/><stop style="stop-color:#fff" id="stop323" offset="1"/></linearGradient><linearGradient id="XMLID_82_" x1="290.445" x2="290.445" y1="71.6" y2="132.298" gradientUnits="userSpaceOnUse"><stop style="stop-color:#458cff" id="stop328" offset="0"/><stop style="stop-color:#fff" id="stop330" offset="1"/></linearGradient><linearGradient id="XMLID_83_" x1="294.037" x2="294.037" y1="71.6" y2="132.298" gradientUnits="userSpaceOnUse"><stop style="stop-color:#458cff" id="stop335" offset="0"/><stop style="stop-color:#fff" id="stop337" offset="1"/></linearGradient><linearGradient id="XMLID_84_" x1="330.342" x2="330.342" y1="71.6" y2="132.298" gradientUnits="userSpaceOnUse"><stop style="stop-color:#458cff" id="stop342" offset="0"/><stop style="stop-color:#fff" id="stop344" offset="1"/></linearGradient><linearGradient id="XMLID_85_" x1="312.315" x2="312.315" y1="71.6" y2="132.298" gradientUnits="userSpaceOnUse"><stop style="stop-color:#458cff" id="stop349" offset="0"/><stop style="stop-color:#fff" id="stop351" offset="1"/></linearGradient><linearGradient id="XMLID_86_" x1="312.245" x2="312.245" y1="71.6" y2="132.299" gradientUnits="userSpaceOnUse"><stop style="stop-color:#458cff" id="stop356" offset="0"/><stop style="stop-color:#fff" id="stop358" offset="1"/></linearGradient><filter id="filter3721" style="color-interpolation-filters:sRGB"><feFlood id="feFlood3723" flood-color="#FFF" flood-opacity="1" result="flood"/><feComposite id="feComposite3725" in="flood" in2="SourceGraphic" operator="in" result="composite1"/><feGaussianBlur id="feGaussianBlur3727" in="composite" result="blur" stdDeviation="5"/><feOffset id="feOffset3729" dx="0" dy="0" result="offset"/><feComposite id="feComposite3731" in="SourceGraphic" in2="offset" operator="over" result="fbSourceGraphic"/><feColorMatrix id="feColorMatrix3733" in="fbSourceGraphic" result="fbSourceGraphicAlpha" values="0 0 0 -1 0 0 0 0 -1 0 0 0 0 -1 0 0 0 0 1 0"/><feFlood id="feFlood3735" flood-color="#FFF" flood-opacity="1" in="fbSourceGraphic" result="flood"/><feComposite id="feComposite3737" in="flood" in2="fbSourceGraphic" operator="in" result="composite1"/><feGaussianBlur id="feGaussianBlur3740" in="composite" result="blur" stdDeviation="5"/><feOffset id="feOffset3742" dx="0" dy="0" result="offset"/><feComposite id="feComposite3744" in="fbSourceGraphic" in2="offset" operator="over" result="fbSourceGraphic"/><feColorMatrix id="feColorMatrix3746" in="fbSourceGraphic" result="fbSourceGraphicAlpha" values="0 0 0 -1 0 0 0 0 -1 0 0 0 0 -1 0 0 0 0 1 0"/><feFlood id="feFlood3748" flood-color="#FFF" flood-opacity="1" in="fbSourceGraphic" result="flood"/><feComposite id="feComposite3750" in="flood" in2="fbSourceGraphic" operator="in" result="composite1"/><feGaussianBlur id="feGaussianBlur3752" in="composite" result="blur" stdDeviation="5"/><feOffset id="feOffset3754" dx="0" dy="0" result="offset"/><feComposite id="feComposite3756" in="fbSourceGraphic" in2="offset" operator="over" result="composite2"/></filter></defs><metadata id="metadata7"/><g id="layer1" transform="translate(-55.938873,-88.5)"><path style="fill:url(#linearGradient3206);fill-opacity:1" id="path3209" d="M 55.968873,166.59578 L 56.351226,207.74864 L 591.74874,207.74864 L 591.74874,87.748657 L 405.84249,87.748657 C 401.03218,88.557068 396.59701,89.182275 391.71749,90.061158 C 368.48635,94.245475 345.9216,98.859076 337.90499,100.09241 C 334.17705,100.66594 329.95003,101.50221 325.37374,102.56115 C 320.79745,103.62009 315.89396,104.89525 310.77999,106.31115 C 300.55205,109.14295 289.5447,112.54093 279.02999,116.0299 C 268.51528,119.51887 258.47117,123.09883 250.15499,126.2174 C 241.11972,129.23457 239.26983,130.22098 229.98748,132.4323 C 226.49162,133.26511 214.16367,136.64643 209.5328,137.44844 C 204.16908,138.37738 190.78756,140.89808 180.27999,142.43615 C 172.61693,143.55785 145.79194,145.82568 116.73099,152.92472 C 87.670053,160.02372 59.370343,166.30741 55.968873,166.59578 z"/><path style="fill:url(#linearGradient3219);fill-opacity:1;filter:url(#filter3228)" id="rect2385" d="M 117.70278,144.5299 C 156.6807,131.52785 237.59266,120.76431 279.46868,111.53539 C 321.34469,102.30648 363.94948,94.612205 405.84249,87.748657 L 117.70278,87.748657 L 117.70278,144.5299 z"/><path id="path3221" d="M 94.761617,144.5299 C 101.56455,143.95316 170.09323,144.43235 180.82072,143.51761 C 197.79352,142.30028 198.00159,142.23218 213.76562,139.19141 C 217.28514,138.46481 227.10392,134.84805 231.62374,133.7174 C 235.52285,132.74202 241.83881,129.33597 250.15499,126.2174 C 258.47117,123.09883 268.51528,119.51887 279.02999,116.0299 C 289.5447,112.54093 300.55205,109.14295 310.77999,106.31115 C 317.16276,104.2365 381.99714,94.335526 337.90499,100.09241 C 324.89219,102.49142 368.48635,94.245475 391.71749,90.061158 C 396.59701,89.182275 401.03218,88.557068 405.84249,87.748657" style="fill:none;fill-opacity:1;stroke:url(#linearGradient3186);stroke-width:2;stroke-miterlimit:4;stroke-dasharray:none;stroke-opacity:1;filter:url(#filter3248)"/><rect id="rect3655" width="50.471" height="52" x="536.302" y="-56.166" transform="matrix(0.9424229,0.3344236,-0.3344236,0.9424229,6.0299998,-1.7513455)" style="fill:#001a48;fill-opacity:.64788735;stroke:none;stroke-width:.19999999;stroke-miterlimit:4;stroke-dasharray:none;stroke-opacity:1;filter:url(#filter3707)"/><rect style="fill:url(#linearGradient3653);fill-opacity:1;stroke:none;stroke-width:.19999999;stroke-miterlimit:4;stroke-dasharray:none;stroke-opacity:1" id="rect3645" width="50.471" height="52" x="536.292" y="-62.265" transform="matrix(0.9424229,0.3344235,-0.3344235,0.9424229,0,0)"/><rect style="fill:#fff;fill-opacity:1;stroke:none;stroke-width:.19999999;stroke-miterlimit:4;stroke-dasharray:none;stroke-opacity:1;filter:url(#filter3737)" id="rect3717" width="44.77" height="43.627" x="369.578" y="338.807" transform="matrix(0.9362883,-0.3512325,0.4013773,0.9159128,4.0299997,0.2486545)"/><rect id="rect3713" width="44.77" height="43.627" x="370.536" y="341.63" transform="matrix(0.9362883,-0.3512324,0.4013773,0.9159128,0,0)" style="fill:url(#linearGradient3715);fill-opacity:1;stroke:none;stroke-width:.19999999;stroke-miterlimit:4;stroke-dasharray:none;stroke-opacity:1"/><g id="g3" transform="matrix(0.55513758,0,0,0.55513758,287.25079,95.684966)" style="filter:url(#filter3721)"><g id="g5"><path style="fill:#fff" id="path7" d="M 16.811,89.474 45.221,99.32 46.043,97.216 14.332,86.23 c 0.78,1.113 1.606,2.195 2.479,3.244 z"/><path style="fill:#fff" id="path9" d="m 12.434,83.304 34.39,11.914 0.822,-2.102 -36.858,-12.771 c 0.515,1.004 1.065,1.99 1.646,2.959 z"/><path style="fill:#fff" id="path11" d="m 12.343,32.06 16.31,5.651 c 0.484,-0.641 0.985,-1.266 1.511,-1.864 L 13.577,30.1 c -0.426,0.641 -0.836,1.296 -1.234,1.96 z"/><path style="fill:#fff" id="path13" d="m 5.488,52.962 16.497,5.717 c -0.026,-0.791 -0.018,-1.586 0.014,-2.383 L 5.757,50.668 c -0.108,0.765 -0.198,1.53 -0.269,2.294 z"/><path style="fill:#fff" id="path15" d="m 9.483,77.626 38.944,13.493 0.2,-0.512 -5.658,-2.213 C 40.209,87.316 37.681,85.9 35.402,84.218 L 8.371,74.852 c 0.346,0.936 0.712,1.862 1.112,2.774 z"/><path style="fill:#fff" id="path17" d="M 7.501,72.283 31.156,80.48 C 30.143,79.418 29.207,78.295 28.35,77.119 L 6.763,69.639 c 0.223,0.888 0.468,1.77 0.738,2.644 z"/><path style="fill:#fff" id="path19" d="m 25.141,17.872 22.114,7.662 c 1.52,-0.37 3.069,-0.63 4.637,-0.78 L 27.416,16.272 c -0.772,0.513 -1.531,1.043 -2.275,1.6 z"/><path style="fill:#fff" id="path21" d="m 5.496,62.277 18.387,6.37 c -0.312,-0.879 -0.589,-1.77 -0.827,-2.674 L 5.322,59.829 c 0.038,0.817 0.096,1.635 0.174,2.448 z"/><path style="fill:#fff" id="path23" d="m 6.213,67.182 20.229,7.009 C 25.896,73.247 25.395,72.276 24.945,71.285 L 5.779,64.643 c 0.122,0.851 0.267,1.696 0.434,2.539 z"/><path style="fill:#fff" id="path25" d="m 5.272,57.543 17.234,5.972 C 22.355,62.686 22.239,61.847 22.151,61.004 L 5.33,55.175 c -0.038,0.792 -0.058,1.581 -0.058,2.368 z"/><path style="fill:#fff" id="path27" d="m 8.674,39.516 c -0.068,0.172 -0.123,0.347 -0.188,0.519 l 15.786,5.471 c 0.279,-0.708 0.586,-1.396 0.909,-2.073 L 9.336,37.943 c -0.225,0.521 -0.453,1.038 -0.662,1.573 z"/><path style="fill:#fff" id="path29" d="m 14.847,28.272 16.938,5.868 c 0.611,-0.602 1.236,-1.185 1.888,-1.733 L 16.296,26.386 c -0.498,0.616 -0.98,1.244 -1.449,1.886 z"/><path style="fill:#fff" id="path31" d="m 10.23,35.984 15.942,5.522 c 0.377,-0.675 0.77,-1.335 1.189,-1.976 L 11.266,33.953 c -0.358,0.668 -0.703,1.344 -1.036,2.031 z"/><path style="fill:#fff" id="path33" d="m 7.103,44.211 15.836,5.487 c 0.18,-0.728 0.383,-1.452 0.615,-2.175 L 7.763,42.052 c -0.238,0.717 -0.457,1.437 -0.66,2.159 z"/><path style="fill:#fff" id="path35" d="m 17.778,24.632 17.92,6.209 c 0.773,-0.555 1.568,-1.076 2.384,-1.563 L 19.464,22.829 c -0.575,0.585 -1.138,1.186 -1.686,1.803 z"/><path style="fill:#fff" id="path37" d="m 6.107,48.521 16.053,5.562 c 0.082,-0.759 0.187,-1.517 0.323,-2.275 L 6.573,46.296 c -0.174,0.74 -0.328,1.483 -0.466,2.225 z"/><path style="fill:#fff" id="path39" d="m 21.186,21.156 19.459,6.742 c 1.014,-0.489 2.053,-0.924 3.112,-1.308 L 23.142,19.446 c -0.664,0.555 -1.318,1.122 -1.956,1.71 z"/><path style="fill:#fff" id="path41" d="m 36.887,103.953 5.658,2.213 0.292,-0.75 -11.166,-3.867 c 1.674,0.886 3.409,1.697 5.216,2.404 z"/><path style="fill:#fff" id="path43" d="m 24.22,96.699 19.397,6.721 0.822,-2.104 -24.601,-8.523 c 1.376,1.378 2.835,2.685 4.382,3.906 z"/><path style="fill:#fff" id="path45" d="m 50.663,8.092 26.621,9.224 0.822,-2.103 -20.98,-7.27 C 54.958,7.853 52.8,7.902 50.663,8.092 z"/><path style="fill:#fff" id="path47" d="M 35.175,12.037 74.077,25.516 74.899,23.414 38.416,10.772 c -1.094,0.388 -2.177,0.802 -3.241,1.265 z"/><path style="fill:#fff" id="path49" d="M 41.822,9.685 75.68,21.416 76.502,19.313 45.975,8.735 c -1.399,0.261 -2.786,0.571 -4.153,0.95 z"/><path style="fill:#fff" id="path51" d="m 29.75,14.813 28.788,9.975 c 2.847,0.306 5.699,0.982 8.49,2.074 l 5.658,2.213 0.61,-1.561 -40.884,-14.165 c -0.902,0.459 -1.788,0.95 -2.662,1.464 z"/></g><g id="g53"><g id="g55"><linearGradient id="linearGradient3978" x1="67.947" x2="67.947" y1="71.6" y2="132.299" gradientUnits="userSpaceOnUse"><stop style="stop-color:#458cff" id="stop3980" offset="0"/><stop style="stop-color:#fff" id="stop3982" offset="1"/></linearGradient><path style="fill:url(#XMLID_44_)" id="path62" d="M 73.112,11.303 C 67.86,9.249 62.468,8.168 57.125,7.943 l 20.98,7.27 0.665,-1.698 -5.658,-2.212 z"/><linearGradient id="linearGradient3985" x1="61.629" x2="61.629" y1="71.6" y2="132.299" gradientUnits="userSpaceOnUse"><stop style="stop-color:#458cff" id="stop3987" offset="0"/><stop style="stop-color:#fff" id="stop3989" offset="1"/></linearGradient><path style="fill:url(#XMLID_45_)" id="path69" d="m 45.975,8.735 30.527,10.578 0.781,-1.998 -26.62,-9.223 c -1.576,0.14 -3.14,0.355 -4.688,0.643 z"/><linearGradient id="linearGradient3992" x1="57.048" x2="57.048" y1="71.599" y2="132.298" gradientUnits="userSpaceOnUse"><stop style="stop-color:#458cff" id="stop3994" offset="0"/><stop style="stop-color:#fff" id="stop3996" offset="1"/></linearGradient><path style="fill:url(#XMLID_46_)" id="path76" d="M 38.416,10.772 74.899,23.414 75.68,21.416 41.822,9.685 c -1.151,0.318 -2.283,0.689 -3.406,1.087 z"/><linearGradient id="linearGradient3999" x1="53.245" x2="53.245" y1="71.601" y2="132.3" gradientUnits="userSpaceOnUse"><stop style="stop-color:#458cff" id="stop4001" offset="0"/><stop style="stop-color:#fff" id="stop4003" offset="1"/></linearGradient><path style="fill:url(#XMLID_47_)" id="path83" d="M 32.412,13.349 73.296,27.514 74.077,25.516 35.175,12.037 c -0.934,0.407 -1.854,0.848 -2.763,1.312 z"/><linearGradient id="linearGradient4006" x1="42.977" x2="42.977" y1="71.6" y2="132.299" gradientUnits="userSpaceOnUse"><stop style="stop-color:#458cff" id="stop4008" offset="0"/><stop style="stop-color:#fff" id="stop4010" offset="1"/></linearGradient><path style="fill:url(#XMLID_48_)" id="path90" d="m 27.416,16.271 24.476,8.482 c 2.19,-0.213 4.417,-0.206 6.646,0.033 L 29.75,14.813 c -0.792,0.465 -1.569,0.951 -2.334,1.458 z"/><linearGradient id="linearGradient4013" x1="35.199" x2="35.199" y1="71.6" y2="132.299" gradientUnits="userSpaceOnUse"><stop style="stop-color:#458cff" id="stop4015" offset="0"/><stop style="stop-color:#fff" id="stop4017" offset="1"/></linearGradient><path style="fill:url(#XMLID_49_)" id="path97" d="m 23.142,19.447 20.615,7.144 c 1.145,-0.416 2.313,-0.77 3.498,-1.057 L 25.141,17.872 c -0.678,0.509 -1.346,1.031 -1.999,1.575 z"/><linearGradient id="linearGradient4020" x1="30.055" x2="30.055" y1="71.6" y2="132.299" gradientUnits="userSpaceOnUse"><stop style="stop-color:#458cff" id="stop4022" offset="0"/><stop style="stop-color:#fff" id="stop4024" offset="1"/></linearGradient><path style="fill:url(#XMLID_50_)" id="path104" d="m 19.464,22.829 18.618,6.449 c 0.834,-0.497 1.689,-0.958 2.563,-1.38 L 21.186,21.156 c -0.586,0.543 -1.16,1.101 -1.722,1.673 z"/><linearGradient id="linearGradient4027" x1="25.997" x2="25.997" y1="71.6" y2="132.299" gradientUnits="userSpaceOnUse"><stop style="stop-color:#458cff" id="stop4029" offset="0"/><stop style="stop-color:#fff" id="stop4031" offset="1"/></linearGradient><path style="fill:url(#XMLID_51_)" id="path111" d="m 16.295,26.386 17.377,6.021 c 0.654,-0.552 1.334,-1.069 2.026,-1.566 l -17.92,-6.209 c -0.507,0.571 -1,1.158 -1.483,1.754 z"/><linearGradient id="linearGradient4034" x1="22.681" x2="22.681" y1="71.6" y2="132.299" gradientUnits="userSpaceOnUse"><stop style="stop-color:#458cff" id="stop4036" offset="0"/><stop style="stop-color:#fff" id="stop4038" offset="1"/></linearGradient><path style="fill:url(#XMLID_52_)" id="path118" d="m 13.577,30.1 16.586,5.747 c 0.52,-0.592 1.063,-1.156 1.621,-1.706 L 14.846,28.273 C 14.41,28.868 13.988,29.48 13.577,30.1 z"/><linearGradient id="linearGradient4041" x1="19.959" x2="19.959" y1="71.6" y2="132.299" gradientUnits="userSpaceOnUse"><stop style="stop-color:#458cff" id="stop4043" offset="0"/><stop style="stop-color:#fff" id="stop4045" offset="1"/></linearGradient><path style="fill:url(#XMLID_53_)" id="path125" d="m 11.267,33.954 16.095,5.577 c 0.409,-0.626 0.843,-1.229 1.291,-1.82 L 12.343,32.06 c -0.372,0.621 -0.729,1.253 -1.076,1.894 z"/><linearGradient id="linearGradient4048" x1="17.754" x2="17.754" y1="71.6" y2="132.298" gradientUnits="userSpaceOnUse"><stop style="stop-color:#458cff" id="stop4050" offset="0"/><stop style="stop-color:#fff" id="stop4052" offset="1"/></linearGradient><path style="fill:url(#XMLID_54_)" id="path132" d="m 9.335,37.941 15.845,5.49 c 0.312,-0.656 0.642,-1.299 0.992,-1.925 L 10.23,35.984 c -0.31,0.644 -0.609,1.294 -0.895,1.957 z"/><linearGradient id="linearGradient4055" x1="16.018" x2="16.018" y1="71.6" y2="132.299" gradientUnits="userSpaceOnUse"><stop style="stop-color:#458cff" id="stop4057" offset="0"/><stop style="stop-color:#fff" id="stop4059" offset="1"/></linearGradient><path style="fill:url(#XMLID_55_)" id="path139" d="m 7.763,42.052 15.791,5.472 c 0.208,-0.643 0.429,-1.285 0.678,-1.924 0.013,-0.033 0.027,-0.063 0.04,-0.095 L 8.486,40.034 c -0.254,0.672 -0.5,1.343 -0.723,2.018 z"/><linearGradient id="linearGradient4062" x1="14.756" x2="14.756" y1="71.6" y2="132.299" gradientUnits="userSpaceOnUse"><stop style="stop-color:#458cff" id="stop4064" offset="0"/><stop style="stop-color:#fff" id="stop4066" offset="1"/></linearGradient><path style="fill:url(#XMLID_56_)" id="path146" d="m 6.573,46.296 15.91,5.512 c 0.126,-0.705 0.281,-1.407 0.456,-2.109 L 7.103,44.211 C 6.909,44.904 6.736,45.6 6.573,46.296 z"/><linearGradient id="linearGradient4069" x1="13.959" x2="13.959" y1="71.6" y2="132.299" gradientUnits="userSpaceOnUse"><stop style="stop-color:#458cff" id="stop4071" offset="0"/><stop style="stop-color:#fff" id="stop4073" offset="1"/></linearGradient><path style="fill:url(#XMLID_57_)" id="path153" d="m 5.757,50.668 16.241,5.628 c 0.029,-0.736 0.081,-1.474 0.161,-2.213 L 6.107,48.521 c -0.134,0.715 -0.249,1.431 -0.35,2.147 z"/><linearGradient id="linearGradient4076" x1="13.741" x2="13.741" y1="71.6" y2="132.299" gradientUnits="userSpaceOnUse"><stop style="stop-color:#458cff" id="stop4078" offset="0"/><stop style="stop-color:#fff" id="stop4080" offset="1"/></linearGradient><path style="fill:url(#XMLID_58_)" id="path160" d="m 5.33,55.175 16.821,5.829 C 22.07,60.233 22.011,59.458 21.984,58.679 L 5.488,52.962 c -0.07,0.739 -0.122,1.476 -0.158,2.213 z"/><linearGradient id="linearGradient4083" x1="14.164" x2="14.164" y1="71.6" y2="132.299" gradientUnits="userSpaceOnUse"><stop style="stop-color:#458cff" id="stop4085" offset="0"/><stop style="stop-color:#fff" id="stop4087" offset="1"/></linearGradient><path style="fill:url(#XMLID_59_)" id="path167" d="m 5.322,59.829 17.733,6.145 C 22.843,65.162 22.657,64.343 22.506,63.515 L 5.272,57.543 c -0.001,0.764 0.015,1.525 0.05,2.286 z"/><linearGradient id="linearGradient4090" x1="15.22" x2="15.22" y1="71.6" y2="132.298" gradientUnits="userSpaceOnUse"><stop style="stop-color:#458cff" id="stop4092" offset="0"/><stop style="stop-color:#fff" id="stop4094" offset="1"/></linearGradient><path style="fill:url(#XMLID_60_)" id="path174" d="m 5.779,64.643 19.166,6.642 C 24.553,70.422 24.2,69.541 23.883,68.648 L 5.496,62.278 c 0.075,0.79 0.17,1.579 0.283,2.365 z"/><linearGradient id="linearGradient4097" x1="17.282" x2="17.282" y1="71.6" y2="132.299" gradientUnits="userSpaceOnUse"><stop style="stop-color:#458cff" id="stop4099" offset="0"/><stop style="stop-color:#fff" id="stop4101" offset="1"/></linearGradient><path style="fill:url(#XMLID_61_)" id="path181" d="m 6.763,69.639 21.587,7.48 C 27.662,76.176 27.024,75.198 26.441,74.19 L 6.213,67.182 c 0.163,0.825 0.346,1.643 0.55,2.457 z"/><linearGradient id="linearGradient4104" x1="21.452" x2="21.452" y1="71.6" y2="132.299" gradientUnits="userSpaceOnUse"><stop style="stop-color:#458cff" id="stop4106" offset="0"/><stop style="stop-color:#fff" id="stop4108" offset="1"/></linearGradient><path style="fill:url(#XMLID_62_)" id="path188" d="m 8.371,74.852 27.032,9.367 C 33.869,83.088 32.452,81.834 31.157,80.481 L 7.501,72.283 c 0.268,0.864 0.556,1.722 0.87,2.569 z"/><linearGradient id="linearGradient4111" x1="28.956" x2="28.956" y1="71.6" y2="132.299" gradientUnits="userSpaceOnUse"><stop style="stop-color:#458cff" id="stop4113" offset="0"/><stop style="stop-color:#fff" id="stop4115" offset="1"/></linearGradient><path style="fill:url(#XMLID_63_)" id="path195" d="M 10.788,80.345 47.647,93.116 48.428,91.118 9.483,77.626 c 0.405,0.921 0.846,1.824 1.305,2.719 z"/><linearGradient id="linearGradient4118" x1="29.629" x2="29.629" y1="71.6" y2="132.298" gradientUnits="userSpaceOnUse"><stop style="stop-color:#458cff" id="stop4120" offset="0"/><stop style="stop-color:#fff" id="stop4122" offset="1"/></linearGradient><path style="fill:url(#XMLID_64_)" id="path202" d="m 14.332,86.23 31.711,10.986 0.782,-1.998 -34.39,-11.914 c 0.598,0.994 1.229,1.971 1.897,2.926 z"/><linearGradient id="linearGradient4125" x1="31.016" x2="31.016" y1="71.6" y2="132.299" gradientUnits="userSpaceOnUse"><stop style="stop-color:#458cff" id="stop4127" offset="0"/><stop style="stop-color:#fff" id="stop4129" offset="1"/></linearGradient><path style="fill:url(#XMLID_65_)" id="path209" d="m 19.839,92.792 24.601,8.523 0.781,-1.996 -28.41,-9.846 c 0.954,1.152 1.966,2.257 3.028,3.319 z"/><linearGradient id="linearGradient4132" x1="33.919" x2="33.919" y1="71.6" y2="132.299" gradientUnits="userSpaceOnUse"><stop style="stop-color:#458cff" id="stop4134" offset="0"/><stop style="stop-color:#fff" id="stop4136" offset="1"/></linearGradient><path style="fill:url(#XMLID_66_)" id="path216" d="m 31.671,101.548 11.166,3.867 0.781,-1.996 -19.398,-6.72 c 2.302,1.814 4.792,3.439 7.451,4.849 z"/></g><linearGradient id="linearGradient4139" x1="36.756" x2="36.756" y1="71.597" y2="132.294" gradientUnits="userSpaceOnUse"><stop style="stop-color:#458cff" id="stop4141" offset="0"/><stop style="stop-color:#fff" id="stop4143" offset="1"/></linearGradient><path style="fill:url(#XMLID_67_)" id="path223" d="m 3.417,31.629 0,0 C -6.571,57.173 6.085,86.08 31.63,96.068 L 37.287,98.279 43.37,82.72 37.712,80.509 C 20.748,73.875 12.342,54.677 18.975,37.713 25.608,20.749 44.806,12.343 61.77,18.977 L 67.428,21.188 73.512,5.629 67.854,3.417 C 42.31,-6.57 13.404,6.085 3.417,31.629 z"/></g><g id="g225"><linearGradient id="linearGradient4147" x1="268.606" x2="268.606" y1="71.599" y2="132.297" gradientUnits="userSpaceOnUse"><stop style="stop-color:#458cff" id="stop4149" offset="0"/><stop style="stop-color:#fff" id="stop4151" offset="1"/></linearGradient><path style="fill:url(#XMLID_68_)" id="path232" d="m 264.236,67.276 c -0.168,-3.205 0.662,-6.361 2.492,-9.469 1.828,-3.107 5.662,-4.773 11.498,-4.996 v -5.25 c -4.145,0.057 -7.289,0.893 -9.43,2.508 -2.143,1.615 -3.787,3.773 -4.936,6.473 v -7.855 h -4.875 v 44.125 h 5.25 V 67.276 z"/><linearGradient id="linearGradient4154" x1="231.377" x2="231.377" y1="71.598" y2="132.298" gradientUnits="userSpaceOnUse"><stop style="stop-color:#458cff" id="stop4156" offset="0"/><stop style="stop-color:#fff" id="stop4158" offset="1"/></linearGradient><path style="fill:url(#XMLID_69_)" id="path239" d="m 241.611,63.753 c -0.07,0.672 -0.242,1.188 -0.52,1.551 -1.15,0.84 -3.303,1.391 -6.459,1.656 -3.156,0.265 -6.563,0.699 -10.223,1.301 -3.66,0.602 -6.809,1.859 -9.445,3.773 -2.637,1.916 -4.012,4.957 -4.123,9.122 0.027,3.66 1.287,6.678 3.779,9.053 2.492,2.375 6.076,3.615 10.752,3.729 4.389,-0.168 7.918,-1.063 10.588,-2.682 2.668,-1.619 4.688,-3.211 6.059,-4.775 -0.168,2.195 0.285,3.854 1.361,4.979 1.076,1.125 2.719,1.701 4.928,1.729 1.033,-0.057 1.844,-0.141 2.432,-0.25 0.586,-0.111 0.979,-0.166 1.174,-0.166 v -3.709 c -0.225,0 -0.49,0.021 -0.797,0.063 -0.309,0.043 -0.588,0.063 -0.838,0.063 -1.326,-0.027 -2.217,-0.246 -2.672,-0.656 -0.457,-0.41 -0.67,-0.883 -0.641,-1.422 V 59.603 c 0.027,-3.232 -1.27,-6.02 -3.891,-8.361 -2.621,-2.34 -6.775,-3.566 -12.463,-3.68 -6.094,0.168 -10.543,1.693 -13.352,4.58 -2.809,2.887 -4.197,6.127 -4.17,9.725 h 5 c 0.082,-2.602 1.074,-4.865 2.973,-6.791 1.899,-1.926 5.166,-2.93 9.801,-3.014 5.592,0.277 8.869,1.607 9.83,3.986 0.961,2.381 1.301,4.082 1.021,5.105 0.002,1.063 -0.033,1.93 -0.104,2.6 z m 0.106,13.627 c -0.168,3.727 -1.793,6.661 -4.875,8.801 -3.082,2.143 -6.682,3.229 -10.799,3.256 -3.359,-0.084 -5.859,-0.918 -7.496,-2.502 -1.637,-1.582 -2.455,-3.467 -2.455,-5.654 0.055,-2.766 0.986,-4.807 2.793,-6.122 1.807,-1.315 4.076,-2.23 6.807,-2.748 2.73,-0.516 5.537,-0.928 8.422,-1.236 2.883,-0.307 5.418,-0.781 7.604,-1.426 v 7.631 z"/><linearGradient id="linearGradient4161" x1="114.657" x2="114.657" y1="71.598" y2="132.3" gradientUnits="userSpaceOnUse"><stop style="stop-color:#458cff" id="stop4163" offset="0"/><stop style="stop-color:#fff" id="stop4165" offset="1"/></linearGradient><path style="fill:url(#XMLID_70_)" id="path246" d="m 116.295,94.437 c 8.059,-0.309 14.08,-2.654 18.068,-7.041 3.988,-4.387 5.982,-9.235 5.982,-14.543 h -5.5 c -0.057,4.674 -1.707,8.614 -4.953,11.819 -3.246,3.205 -7.695,4.877 -13.348,5.016 -8.226,-0.363 -13.957,-3.355 -17.187,-8.979 -3.232,-5.624 -4.777,-11.764 -4.637,-18.422 0.055,-8.557 1.924,-15.254 5.604,-20.092 3.68,-4.838 8.932,-7.299 15.759,-7.383 6.338,0.254 10.953,1.969 13.844,5.148 2.891,3.179 4.32,6.34 4.293,9.477 h 5.625 c 0.027,-4.51 -1.855,-8.838 -5.646,-12.984 -3.793,-4.146 -9.732,-6.359 -17.82,-6.641 -8.548,0.084 -15.232,2.959 -20.052,8.623 -4.82,5.664 -7.271,13.531 -7.355,23.6 -0.086,8.748 2.023,16.252 6.326,22.51 4.3,6.259 11.3,9.556 20.997,9.892 z"/><linearGradient id="linearGradient4168" x1="153.124" x2="153.124" y1="71.601" y2="132.299" gradientUnits="userSpaceOnUse"><stop style="stop-color:#458cff" id="stop4170" offset="0"/><stop style="stop-color:#fff" id="stop4172" offset="1"/></linearGradient><rect style="fill:url(#XMLID_71_)" id="rect253" width="5" height="61.25" x="150.624" y="31.562"/><linearGradient id="linearGradient4175" x1="184.681" x2="184.681" y1="71.598" y2="132.298" gradientUnits="userSpaceOnUse"><stop style="stop-color:#458cff" id="stop4177" offset="0"/><stop style="stop-color:#fff" id="stop4179" offset="1"/></linearGradient><path style="fill:url(#XMLID_72_)" id="path260" d="m 184.93,93.937 c 6.076,-0.281 10.648,-1.998 13.715,-5.154 3.067,-3.156 4.6,-6.301 4.6,-9.43 h -5.125 c -0.029,2.446 -1.174,4.745 -3.436,6.897 -2.262,2.152 -5.373,3.299 -9.334,3.438 -5.107,-0.168 -8.846,-2.002 -11.217,-5.504 -2.371,-3.502 -3.541,-7.668 -3.514,-12.497 h 33.25 c 0,-4.883 -0.453,-8.795 -1.359,-11.74 -0.906,-2.943 -2.279,-5.281 -4.119,-7.012 -1.063,-1.166 -2.678,-2.332 -4.844,-3.498 -2.168,-1.166 -4.984,-1.791 -8.449,-1.875 -5.988,0.027 -10.732,2.037 -14.23,6.029 -3.5,3.992 -5.291,9.783 -5.373,17.375 -0.057,6.094 1.434,11.383 4.471,15.868 3.034,4.484 8.022,6.851 14.964,7.103 z M 174.678,56.771 c 2.482,-3 5.871,-4.568 10.168,-4.709 4.451,0.084 7.832,1.578 10.141,4.48 2.309,2.902 3.479,6.617 3.508,11.145 H 170.87 c 0.054,-4.278 1.323,-7.916 3.808,-10.916 z"/><linearGradient id="linearGradient4182" x1="463.526" x2="463.526" y1="71.598" y2="132.298" gradientUnits="userSpaceOnUse"><stop style="stop-color:#458cff" id="stop4184" offset="0"/><stop style="stop-color:#fff" id="stop4186" offset="1"/></linearGradient><path style="fill:url(#XMLID_73_)" id="path267" d="m 481.355,59.946 c -0.906,-2.943 -2.279,-5.281 -4.119,-7.012 -1.063,-1.166 -2.678,-2.332 -4.844,-3.498 -2.168,-1.166 -4.984,-1.791 -8.449,-1.875 -5.988,0.027 -10.732,2.037 -14.23,6.029 -3.5,3.992 -5.291,9.783 -5.373,17.375 -0.057,6.094 1.434,11.383 4.471,15.868 3.035,4.484 8.023,6.852 14.965,7.104 6.076,-0.281 10.648,-1.998 13.715,-5.154 3.067,-3.156 4.6,-6.301 4.6,-9.43 h -5.125 c -0.029,2.446 -1.174,4.745 -3.436,6.897 -2.262,2.152 -5.373,3.299 -9.334,3.438 -5.107,-0.168 -8.846,-2.002 -11.217,-5.504 -2.371,-3.502 -3.541,-7.668 -3.514,-12.497 h 33.25 c 0,-4.883 -0.453,-8.795 -1.36,-11.741 z m -31.64,7.741 c 0.055,-4.277 1.324,-7.916 3.809,-10.916 2.482,-3 5.871,-4.568 10.168,-4.709 4.451,0.084 7.832,1.578 10.141,4.48 2.309,2.902 3.479,6.617 3.508,11.145 h -27.626 z"/><linearGradient id="linearGradient4189" x1="414.711" x2="414.711" y1="71.6" y2="132.297" gradientUnits="userSpaceOnUse"><stop style="stop-color:#458cff" id="stop4191" offset="0"/><stop style="stop-color:#fff" id="stop4193" offset="1"/></linearGradient><path style="fill:url(#XMLID_74_)" id="path274" d="m 429.711,56.374 c -1.004,-2.145 -2.74,-4.121 -5.209,-5.93 -2.469,-1.809 -5.654,-2.77 -9.557,-2.883 -6.898,0.141 -12.004,2.381 -15.313,6.721 -3.309,4.34 -4.949,9.846 -4.922,16.516 0.055,7.127 1.773,12.737 5.152,16.831 3.379,4.094 8.07,6.195 14.074,6.309 4.238,-0.113 7.621,-1.014 10.145,-2.701 2.523,-1.689 4.4,-3.666 5.629,-5.93 v 7.506 h 5 v -61.25 h -5 v 24.811 z m -3.775,28.665 c -2.711,3.043 -6.375,4.551 -10.99,4.523 -5.527,-0.223 -9.428,-2.24 -11.701,-6.053 -2.273,-3.811 -3.369,-8.02 -3.283,-12.627 -0.057,-5.34 1.107,-9.777 3.492,-13.311 2.385,-3.534 6.342,-5.369 11.869,-5.51 4.754,0.057 8.395,1.727 10.926,5.008 2.531,3.283 3.811,7.916 3.838,13.896 -0.058,6.341 -1.441,11.031 -4.151,14.074 z"/><linearGradient id="linearGradient4196" x1="367.182" x2="367.182" y1="71.598" y2="132.298" gradientUnits="userSpaceOnUse"><stop style="stop-color:#458cff" id="stop4198" offset="0"/><stop style="stop-color:#fff" id="stop4200" offset="1"/></linearGradient><path style="fill:url(#XMLID_75_)" id="path281" d="m 367.164,47.562 c -7.473,0.223 -12.756,2.609 -15.848,7.16 -3.092,4.551 -4.596,9.881 -4.512,15.992 -0.111,6.094 1.371,11.424 4.449,15.993 3.078,4.57 8.381,6.979 15.91,7.23 7.803,-0.309 13.188,-2.807 16.152,-7.502 2.964,-4.695 4.377,-9.936 4.238,-15.721 0.082,-6.363 -1.455,-11.764 -4.615,-16.201 -3.16,-4.437 -8.418,-6.756 -15.774,-6.951 z m 11.596,36.576 c -2.391,3.504 -6.256,5.313 -11.596,5.424 -5.289,-0.111 -9.135,-1.926 -11.541,-5.445 -2.406,-3.518 -3.596,-8.014 -3.568,-13.487 -0.027,-5.367 1.203,-9.777 3.693,-13.227 2.49,-3.45 6.379,-5.23 11.668,-5.342 5.367,0.168 9.205,2.039 11.512,5.613 2.307,3.574 3.432,7.949 3.377,13.123 0.027,5.391 -1.155,9.837 -3.545,13.341 z"/><g id="g283"><linearGradient id="linearGradient4204" x1="312.768" x2="312.768" y1="71.6" y2="132.299" gradientUnits="userSpaceOnUse"><stop style="stop-color:#458cff" id="stop4206" offset="0"/><stop style="stop-color:#fff" id="stop4208" offset="1"/></linearGradient><path style="fill:url(#XMLID_76_)" id="path290" d="m 313.043,29.893 c -7.198,0.132 -13.027,1.608 -17.498,4.417 h 34.445 c -4.215,-2.792 -9.847,-4.28 -16.947,-4.417 z"/><linearGradient id="linearGradient4211" x1="312.542" x2="312.542" y1="71.6" y2="132.298" gradientUnits="userSpaceOnUse"><stop style="stop-color:#458cff" id="stop4213" offset="0"/><stop style="stop-color:#fff" id="stop4215" offset="1"/></linearGradient><path style="fill:url(#XMLID_77_)" id="path297" d="m 313.043,41.018 c 2.342,0.06 4.392,0.409 6.167,1.032 h 17.711 c -1.063,-2.07 -2.484,-3.979 -4.31,-5.706 -0.344,-0.325 -0.725,-0.616 -1.095,-0.917 H 293.93 c -1.46,1.111 -2.755,2.385 -3.874,3.831 -0.688,0.889 -1.308,1.827 -1.893,2.792 h 18.388 c 1.883,-0.624 4.046,-0.969 6.492,-1.032 z"/><linearGradient id="linearGradient4218" x1="294.419" x2="294.419" y1="71.6" y2="132.298" gradientUnits="userSpaceOnUse"><stop style="stop-color:#458cff" id="stop4220" offset="0"/><stop style="stop-color:#fff" id="stop4222" offset="1"/></linearGradient><path style="fill:url(#XMLID_78_)" id="path304" d="m 299.527,47.436 c 1.113,-1.815 2.637,-3.224 4.523,-4.27 h -16.517 c -1.128,2.052 -2.058,4.249 -2.746,6.623 h 13.511 c 0.372,-0.814 0.771,-1.606 1.229,-2.353 z"/><linearGradient id="linearGradient4225" x1="330.345" x2="330.345" y1="71.6" y2="132.298" gradientUnits="userSpaceOnUse"><stop style="stop-color:#458cff" id="stop4227" offset="0"/><stop style="stop-color:#fff" id="stop4229" offset="1"/></linearGradient><path style="fill:url(#XMLID_79_)" id="path311" d="m 323.268,44.354 c 1.841,1.619 2.979,3.432 3.426,5.436 h 12.385 c -0.186,-2.364 -0.716,-4.574 -1.607,-6.623 h -15.859 c 0.591,0.354 1.151,0.743 1.655,1.187 z"/><linearGradient id="linearGradient4232" x1="290.603" x2="290.603" y1="71.6" y2="132.298" gradientUnits="userSpaceOnUse"><stop style="stop-color:#458cff" id="stop4234" offset="0"/><stop style="stop-color:#fff" id="stop4236" offset="1"/></linearGradient><path style="fill:url(#XMLID_80_)" id="path318" d="M 297.813,50.905 H 284.51 c -0.535,2.088 -0.907,4.297 -1.117,6.623 h 12.797 c 0.296,-2.396 0.831,-4.609 1.623,-6.623 z"/><linearGradient id="linearGradient4239" x1="289.611" x2="289.611" y1="71.6" y2="132.298" gradientUnits="userSpaceOnUse"><stop style="stop-color:#458cff" id="stop4241" offset="0"/><stop style="stop-color:#fff" id="stop4243" offset="1"/></linearGradient><path style="fill:url(#XMLID_81_)" id="path325" d="m 295.914,62.828 c -0.026,-1.452 0.026,-2.843 0.146,-4.183 h -12.77 c -0.087,1.306 -0.139,2.637 -0.127,4.015 -0.006,0.89 0.031,1.751 0.07,2.608 h 12.757 c -0.05,-0.792 -0.08,-1.603 -0.076,-2.44 z"/><linearGradient id="linearGradient4246" x1="290.445" x2="290.445" y1="71.6" y2="132.298" gradientUnits="userSpaceOnUse"><stop style="stop-color:#458cff" id="stop4248" offset="0"/><stop style="stop-color:#fff" id="stop4250" offset="1"/></linearGradient><path style="fill:url(#XMLID_82_)" id="path332" d="m 296.09,66.386 h -12.798 c 0.164,2.328 0.509,4.531 1.017,6.623 h 13.29 c -0.771,-1.994 -1.27,-4.205 -1.509,-6.623 z"/><linearGradient id="linearGradient4253" x1="294.037" x2="294.037" y1="71.6" y2="132.298" gradientUnits="userSpaceOnUse"><stop style="stop-color:#458cff" id="stop4255" offset="0"/><stop style="stop-color:#fff" id="stop4257" offset="1"/></linearGradient><path style="fill:url(#XMLID_83_)" id="path339" d="m 299.986,77.445 c -0.744,-1.022 -1.377,-2.134 -1.917,-3.319 h -13.467 c 0.655,2.361 1.525,4.574 2.636,6.624 h 16.233 c -1.346,-0.877 -2.514,-1.97 -3.485,-3.305 z"/><linearGradient id="linearGradient4260" x1="330.342" x2="330.342" y1="71.6" y2="132.298" gradientUnits="userSpaceOnUse"><stop style="stop-color:#458cff" id="stop4262" offset="0"/><stop style="stop-color:#fff" id="stop4264" offset="1"/></linearGradient><path style="fill:url(#XMLID_84_)" id="path346" d="m 323.15,79.545 c -0.498,0.445 -1.038,0.839 -1.598,1.205 h 15.771 c 0.94,-2.025 1.542,-4.233 1.808,-6.624 h -12.31 c -0.55,1.909 -1.768,3.717 -3.671,5.419 z"/><linearGradient id="linearGradient4267" x1="312.315" x2="312.315" y1="71.6" y2="132.298" gradientUnits="userSpaceOnUse"><stop style="stop-color:#458cff" id="stop4269" offset="0"/><stop style="stop-color:#fff" id="stop4271" offset="1"/></linearGradient><path style="fill:url(#XMLID_85_)" id="path353" d="m 331.658,87.972 c 2.159,-1.781 3.833,-3.826 5.077,-6.105 h -17.263 c -1.959,0.846 -4.209,1.32 -6.766,1.4 -2.716,-0.053 -5.084,-0.529 -7.129,-1.4 h -17.682 c 0.683,1.137 1.413,2.24 2.244,3.275 1,1.246 2.135,2.355 3.39,3.348 h 37.438 c 0.229,-0.176 0.47,-0.334 0.691,-0.518 z"/><linearGradient id="linearGradient4274" x1="312.245" x2="312.245" y1="71.6" y2="132.299" gradientUnits="userSpaceOnUse"><stop style="stop-color:#458cff" id="stop4276" offset="0"/><stop style="stop-color:#fff" id="stop4278" offset="1"/></linearGradient><path style="fill:url(#XMLID_86_)" id="path360" d="m 329.415,89.607 h -34.339 c 4.486,2.947 10.359,4.504 17.631,4.66 6.593,-0.119 12.156,-1.68 16.708,-4.66 z"/></g></g></g></g></svg>